<svg id="Android" xmlns="http://www.w3.org/2000/svg" viewBox="0 0 80.581 98.463"><defs><style>.cls-1{fill:#7e8184;}</style></defs><title>platform-icon-android</title><rect class="cls-1" y="28.602" width="11.824" height="39.527" rx="5.912" ry="5.912"/><rect class="cls-1" x="68.757" y="28.602" width="11.824" height="39.527" rx="5.912" ry="5.912"/><path class="cls-1" d="M14.189,31.3H66.554a0,0,0,0,1,0,0V70.913a6,6,0,0,1-6,6H20.189a6,6,0,0,1-6-6V31.3A0,0,0,0,1,14.189,31.3Z"/><path class="cls-1" d="M24.622,76.913H36.446a0,0,0,0,1,0,0V92.551a5.912,5.912,0,0,1-5.912,5.912h0a5.912,5.912,0,0,1-5.912-5.912V76.913a0,0,0,0,1,0,0Z"/><path class="cls-1" d="M43.955,76.913H55.779a0,0,0,0,1,0,0V92.551a5.912,5.912,0,0,1-5.912,5.912h0a5.912,5.912,0,0,1-5.912-5.912V76.913a0,0,0,0,1,0,0Z"/><rect class="cls-1" x="24.09" y="0.167" width="1.667" height="12.167" rx="0.833" ry="0.833" transform="translate(0.214 12.428) rotate(-30)"/><rect class="cls-1" x="52.491" y="0.167" width="1.667" height="12.167" rx="0.833" ry="0.833" transform="translate(96.38 37.454) rotate(-150)"/><path class="cls-1" d="M40.038,6.027A26.136,26.136,0,0,0,14.059,29H66.018A26.136,26.136,0,0,0,40.038,6.027ZM26.253,20.507a2.163,2.163,0,1,1,2.163-2.163A2.163,2.163,0,0,1,26.253,20.507Zm27.071,0a2.163,2.163,0,1,1,2.163-2.163A2.163,2.163,0,0,1,53.325,20.507Z" transform="translate(0 -0.871)"/></svg>