<svg id="ios" xmlns="http://www.w3.org/2000/svg" viewBox="0 0 80.842 100.232"><defs><style>.cls-1{fill:#7e8184;}</style></defs><title>platform-icon-ios</title><path class="cls-1" d="M40.508,27.667s-35.5-21-40.5,24.667c0,0-1.167,36.559,24,47.333,0,0,2.833,2.333,10.833-2.5,0,0,5-4.667,14.333,0,0,0,5.333,2.959,8.333,3.063,0,0,11.167.77,23.333-27.063,0,0-12.667-7.207-13.333-17.854s5.167-18.3,10.833-22.8c0,0-5.667-9.316-16.833-9.662S40.508,27.667,40.508,27.667Z"/><path class="cls-1" d="M40.421,23.5S36.008,3.833,59.008,0C59.008,0,64.167,20.5,40.421,23.5Z"/></svg>